<svg id="gh-dark-mode-only" width="360" height="210" xmlns="http://www.w3.org/2000/svg">
<style>
svg { font-family: -apple-system, BlinkMacSystemFont, Segoe UI, Helvetica, Arial, sans-serif; font-size: 12px; }
#background { width: calc(100% - 10px); height: calc(100% - 10px); fill: white; stroke: rgb(225, 228, 232); stroke-width: 1px; rx: 6px; ry: 6px; }
#gh-dark-mode-only:target #background { fill: #0d1117; stroke-width: 0.5px; }
.title { font-size: 16px; font-weight: 600; fill: rgb(36, 41, 46); }
#gh-dark-mode-only:target .title { fill: #c9d1d9; }
.subtitle, .label { fill: rgb(88, 96, 105); }
#gh-dark-mode-only:target .subtitle, #gh-dark-mode-only:target .label { fill: #8b949e; }
.value { fill: rgb(36, 41, 46); font-weight: 600; }
#gh-dark-mode-only:target .value { fill: #c9d1d9; }
.metric-bar { fill: #2da44e; }
#gh-dark-mode-only:target .language-icon-dark-outline path, #gh-dark-mode-only:target .language-icon-dark-outline circle, #gh-dark-mode-only:target .language-icon-dark-outline ellipse, #gh-dark-mode-only:target .language-icon-dark-outline rect, #gh-dark-mode-only:target .language-icon-dark-outline polygon, #gh-dark-mode-only:target .language-icon-dark-outline polyline, #gh-dark-mode-only:target .language-icon-dark-outline line { stroke: rgba(240, 246, 252, 0.82); stroke-width: 16; stroke-linejoin: round; paint-order: stroke fill markers; }
.empty-bar { fill: rgb(225, 228, 232); }
#gh-dark-mode-only:target .empty-bar { fill: #30363d; }
.row { opacity: 0; transform: translateY(10px); animation: riseIn 600ms ease-out forwards; }
@keyframes riseIn { to { opacity: 1; transform: translateY(0); } }
</style>
<rect x="5" y="5" id="background" />
<text class="title" x="21" y="36">GitHub Trading Card</text>
<text class="subtitle" x="21" y="55">Transparent experimental scorecard</text>
<g class="row" style="animation-delay: 0ms"><text class="label" x="21" y="76">Primary language</text><svg xmlns="http://www.w3.org/2000/svg" viewBox="0 0 128 128" class="language-icon experimental-language-icon" width="14" height="14" aria-hidden="true" x="248" y="65">
  <path fill="#00599c" d="M118.766 95.82c.89-1.543 1.441-3.28 1.441-4.843V36.78c0-1.558-.55-3.297-1.441-4.84l-55.32 31.94Zm0 0" />
  <path fill="#004482" d="m68.36 126.586 46.933-27.094c1.352-.781 2.582-2.129 3.473-3.672l-55.32-31.94L8.12 95.82c.89 1.543 2.121 2.89 3.473 3.672l46.933 27.094c2.703 1.562 7.13 1.562 9.832 0Zm0 0" />
  <path fill="#659ad2" d="M118.766 31.941c-.891-1.546-2.121-2.894-3.473-3.671L68.359 1.172c-2.703-1.563-7.129-1.563-9.832 0L11.594 28.27C8.89 29.828 6.68 33.66 6.68 36.78v54.196c0 1.562.55 3.3 1.441 4.843L63.445 63.88Zm0 0" />
  <path fill="#fff" d="M63.445 26.035c-20.867 0-37.843 16.977-37.843 37.844s16.976 37.844 37.843 37.844c13.465 0 26.024-7.247 32.77-18.91L79.84 73.335c-3.38 5.84-9.66 9.465-16.395 9.465-10.433 0-18.922-8.488-18.922-18.922 0-10.434 8.49-18.922 18.922-18.922 6.73 0 13.017 3.629 16.39 9.465l16.38-9.477c-6.75-11.664-19.305-18.91-32.77-18.91zM92.88 57.57v4.207h-4.207v4.203h4.207v4.207h4.203V65.98h4.203v-4.203h-4.203V57.57H92.88zm15.766 0v4.207h-4.204v4.203h4.204v4.207h4.207V65.98h4.203v-4.203h-4.203V57.57h-4.207z" />
</svg><text class="value" x="330" y="76" text-anchor="end">C++</text></g>
<g class="row" style="animation-delay: 80ms"><text class="label" x="21" y="94">Activity score</text><text class="value" x="330" y="94" text-anchor="end">100/100</text></g>
<g class="row" style="animation-delay: 160ms"><text class="label" x="21" y="112">Impact score</text><text class="value" x="330" y="112" text-anchor="end">100/100</text></g>
<g class="row" style="animation-delay: 240ms"><text class="label" x="21" y="130">Collaboration score</text><text class="value" x="330" y="130" text-anchor="end">49/100</text></g>
<g class="row" style="animation-delay: 320ms"><text class="label" x="21" y="148">Breadth score</text><text class="value" x="330" y="148" text-anchor="end">100/100</text></g>
</svg>
