<svg id="gh-dark-mode-only" width="360" height="210" xmlns="http://www.w3.org/2000/svg">
<style>
svg { font-family: -apple-system, BlinkMacSystemFont, Segoe UI, Helvetica, Arial, sans-serif; font-size: 12px; }
#background { width: calc(100% - 10px); height: calc(100% - 10px); fill: white; stroke: rgb(225, 228, 232); stroke-width: 1px; rx: 6px; ry: 6px; }
#gh-dark-mode-only:target #background { fill: #0d1117; stroke-width: 0.5px; }
.title { font-size: 16px; font-weight: 600; fill: rgb(36, 41, 46); }
#gh-dark-mode-only:target .title { fill: #c9d1d9; }
.subtitle, .label { fill: rgb(88, 96, 105); }
#gh-dark-mode-only:target .subtitle, #gh-dark-mode-only:target .label { fill: #8b949e; }
.value { fill: rgb(36, 41, 46); font-weight: 600; }
#gh-dark-mode-only:target .value { fill: #c9d1d9; }
.metric-bar { fill: #2da44e; }
#gh-dark-mode-only:target .language-icon-dark-outline path, #gh-dark-mode-only:target .language-icon-dark-outline circle, #gh-dark-mode-only:target .language-icon-dark-outline ellipse, #gh-dark-mode-only:target .language-icon-dark-outline rect, #gh-dark-mode-only:target .language-icon-dark-outline polygon, #gh-dark-mode-only:target .language-icon-dark-outline polyline, #gh-dark-mode-only:target .language-icon-dark-outline line { stroke: rgba(240, 246, 252, 0.82); stroke-width: 16; stroke-linejoin: round; paint-order: stroke fill markers; }
.empty-bar { fill: rgb(225, 228, 232); }
#gh-dark-mode-only:target .empty-bar { fill: #30363d; }
.row { opacity: 0; transform: translateY(10px); animation: riseIn 600ms ease-out forwards; }
@keyframes riseIn { to { opacity: 1; transform: translateY(0); } }
</style>
<rect x="5" y="5" id="background" />
<text class="title" x="21" y="36">Language Momentum</text>
<text class="subtitle" x="21" y="55">Estimated from recent repo activity</text>
<g class="row" style="animation-delay: 0ms"><svg xmlns="http://www.w3.org/2000/svg" viewBox="0 0 128 128" class="language-icon experimental-language-icon" width="14" height="14" aria-hidden="true" x="21" y="63">
  <path fill="#00599c" d="M118.766 95.82c.89-1.543 1.441-3.28 1.441-4.843V36.78c0-1.558-.55-3.297-1.441-4.84l-55.32 31.94Zm0 0" />
  <path fill="#004482" d="m68.36 126.586 46.933-27.094c1.352-.781 2.582-2.129 3.473-3.672l-55.32-31.94L8.12 95.82c.89 1.543 2.121 2.89 3.473 3.672l46.933 27.094c2.703 1.562 7.13 1.562 9.832 0Zm0 0" />
  <path fill="#659ad2" d="M118.766 31.941c-.891-1.546-2.121-2.894-3.473-3.671L68.359 1.172c-2.703-1.563-7.129-1.563-9.832 0L11.594 28.27C8.89 29.828 6.68 33.66 6.68 36.78v54.196c0 1.562.55 3.3 1.441 4.843L63.445 63.88Zm0 0" />
  <path fill="#fff" d="M63.445 26.035c-20.867 0-37.843 16.977-37.843 37.844s16.976 37.844 37.843 37.844c13.465 0 26.024-7.247 32.77-18.91L79.84 73.335c-3.38 5.84-9.66 9.465-16.395 9.465-10.433 0-18.922-8.488-18.922-18.922 0-10.434 8.49-18.922 18.922-18.922 6.73 0 13.017 3.629 16.39 9.465l16.38-9.477c-6.75-11.664-19.305-18.91-32.77-18.91zM92.88 57.57v4.207h-4.207v4.203h4.207v4.207h4.203V65.98h4.203v-4.203h-4.203V57.57H92.88zm15.766 0v4.207h-4.204v4.203h4.204v4.207h4.207V65.98h4.203v-4.203h-4.203V57.57h-4.207z" />
</svg><text class="label" x="41" y="74">C++</text><text class="value" x="170" y="74" text-anchor="end">25.9%</text><rect class="metric-bar" x="182" y="64" width="96" height="10" rx="2" style="fill:#f34b7d" /></g>
<g class="row" style="animation-delay: 80ms"><svg xmlns="http://www.w3.org/2000/svg" viewBox="0 0 128 128" class="language-icon experimental-language-icon" width="14" height="14" aria-hidden="true" x="21" y="83"><path fill="#fff" d="M22.67 47h99.67v73.67H22.67z" /><path data-name="original" fill="#007acc" d="M1.5 63.91v62.5h125v-125H1.5zm100.73-5a15.56 15.56 0 017.82 4.5 20.58 20.58 0 013 4c0 .16-5.4 3.81-8.69 5.85-.12.08-.6-.44-1.13-1.23a7.09 7.09 0 00-5.87-3.53c-3.79-.26-6.23 1.73-6.21 5a4.58 4.58 0 00.54 2.34c.83 1.73 2.38 2.76 7.24 4.86 8.95 3.85 12.78 6.39 15.16 10 2.66 4 3.25 10.46 1.45 15.24-2 5.2-6.9 8.73-13.83 9.9a38.32 38.32 0 01-9.52-.1 23 23 0 01-12.72-6.63c-1.15-1.27-3.39-4.58-3.25-4.82a9.34 9.34 0 011.15-.73L82 101l3.59-2.08.75 1.11a16.78 16.78 0 004.74 4.54c4 2.1 9.46 1.81 12.16-.62a5.43 5.43 0 00.69-6.92c-1-1.39-3-2.56-8.59-5-6.45-2.78-9.23-4.5-11.77-7.24a16.48 16.48 0 01-3.43-6.25 25 25 0 01-.22-8c1.33-6.23 6-10.58 12.82-11.87a31.66 31.66 0 019.49.26zm-29.34 5.24v5.12H56.66v46.23H45.15V69.26H28.88v-5a49.19 49.19 0 01.12-5.17C29.08 59 39 59 51 59h21.83z" /></svg><text class="label" x="41" y="94">TypeScript</text><text class="value" x="170" y="94" text-anchor="end">20.9%</text><rect class="metric-bar" x="182" y="84" width="77" height="10" rx="2" style="fill:#3178c6" /></g>
<g class="row" style="animation-delay: 160ms"><svg xmlns="http://www.w3.org/2000/svg" viewBox="0 0 128 128" class="language-icon experimental-language-icon" width="14" height="14" aria-hidden="true" x="21" y="103"><path fill="#a9bacd" d="M125 50c-4-32-24-50-62-50C29 0 3 24 3 64c0 39 24 64 64 64 32 0 55-19 58-50H87c-2 11-8 20-20 20-21 0-24-16-24-33 0-23 8-35 22-35 13 0 20 7 22 20z" /></svg><text class="label" x="41" y="114">C</text><text class="value" x="170" y="114" text-anchor="end">20.7%</text><rect class="metric-bar" x="182" y="104" width="76" height="10" rx="2" style="fill:#555555" /></g>
<g class="row" style="animation-delay: 240ms"><svg xmlns="http://www.w3.org/2000/svg" viewBox="0 0 128 128" class="language-icon experimental-language-icon" width="14" height="14" aria-hidden="true" x="21" y="123"><linearGradient id="language-icon-python-python-original-a" gradientUnits="userSpaceOnUse" x1="70.252" y1="1237.476" x2="170.659" y2="1151.089" gradientTransform="matrix(.563 0 0 -.568 -29.215 707.817)"><stop offset="0" stop-color="#5A9FD4" /><stop offset="1" stop-color="#306998" /></linearGradient><linearGradient id="language-icon-python-python-original-b" gradientUnits="userSpaceOnUse" x1="209.474" y1="1098.811" x2="173.62" y2="1149.537" gradientTransform="matrix(.563 0 0 -.568 -29.215 707.817)"><stop offset="0" stop-color="#FFD43B" /><stop offset="1" stop-color="#FFE873" /></linearGradient><path fill="url(#language-icon-python-python-original-a)" d="M63.391 1.988c-4.222.02-8.252.379-11.8 1.007-10.45 1.846-12.346 5.71-12.346 12.837v9.411h24.693v3.137H29.977c-7.176 0-13.46 4.313-15.426 12.521-2.268 9.405-2.368 15.275 0 25.096 1.755 7.311 5.947 12.519 13.124 12.519h8.491V67.234c0-8.151 7.051-15.34 15.426-15.34h24.665c6.866 0 12.346-5.654 12.346-12.548V15.833c0-6.693-5.646-11.72-12.346-12.837-4.244-.706-8.645-1.027-12.866-1.008zM50.037 9.557c2.55 0 4.634 2.117 4.634 4.721 0 2.593-2.083 4.69-4.634 4.69-2.56 0-4.633-2.097-4.633-4.69-.001-2.604 2.073-4.721 4.633-4.721z" transform="translate(0 10.26)" /><path fill="url(#language-icon-python-python-original-b)" d="M91.682 28.38v10.966c0 8.5-7.208 15.655-15.426 15.655H51.591c-6.756 0-12.346 5.783-12.346 12.549v23.515c0 6.691 5.818 10.628 12.346 12.547 7.816 2.297 15.312 2.713 24.665 0 6.216-1.801 12.346-5.423 12.346-12.547v-9.412H63.938v-3.138h37.012c7.176 0 9.852-5.005 12.348-12.519 2.578-7.735 2.467-15.174 0-25.096-1.774-7.145-5.161-12.521-12.348-12.521h-9.268zM77.809 87.927c2.561 0 4.634 2.097 4.634 4.692 0 2.602-2.074 4.719-4.634 4.719-2.55 0-4.633-2.117-4.633-4.719 0-2.595 2.083-4.692 4.633-4.692z" transform="translate(0 10.26)" /><radialGradient id="language-icon-python-python-original-c" cx="1825.678" cy="444.45" r="26.743" gradientTransform="matrix(0 -.24 -1.055 0 532.979 557.576)" gradientUnits="userSpaceOnUse"><stop offset="0" stop-color="#B8B8B8" stop-opacity=".498" /><stop offset="1" stop-color="#7F7F7F" stop-opacity="0" /></radialGradient><path opacity=".444" fill="url(#language-icon-python-python-original-c)" d="M97.309 119.597c0 3.543-14.816 6.416-33.091 6.416-18.276 0-33.092-2.873-33.092-6.416 0-3.544 14.815-6.417 33.092-6.417 18.275 0 33.091 2.872 33.091 6.417z" /></svg><text class="label" x="41" y="134">Python</text><text class="value" x="170" y="134" text-anchor="end">8.7%</text><rect class="metric-bar" x="182" y="124" width="32" height="10" rx="2" style="fill:#3572A5" /></g>
<g class="row" style="animation-delay: 320ms"><svg xmlns="http://www.w3.org/2000/svg" viewBox="0 0 128 128" class="language-icon experimental-language-icon" width="14" height="14" aria-hidden="true" x="21" y="143"><path fill="#E44D26" d="M19.037 113.876L9.032 1.661h109.936l-10.016 112.198-45.019 12.48z" /><path fill="#F16529" d="M64 116.8l36.378-10.086 8.559-95.878H64z" /><path fill="#EBEBEB" d="M64 52.455H45.788L44.53 38.361H64V24.599H29.489l.33 3.692 3.382 37.927H64zm0 35.743l-.061.017-15.327-4.14-.979-10.975H33.816l1.928 21.609 28.193 7.826.063-.017z" /><path fill="#fff" d="M63.952 52.455v13.763h16.947l-1.597 17.849-15.35 4.143v14.319l28.215-7.82.207-2.325 3.234-36.233.335-3.696h-3.708zm0-27.856v13.762h33.244l.276-3.092.628-6.978.329-3.692z" /></svg><text class="label" x="41" y="154">HTML</text><text class="value" x="170" y="154" text-anchor="end">5.3%</text><rect class="metric-bar" x="182" y="144" width="20" height="10" rx="2" style="fill:#e34c26" /></g>
<g class="row" style="animation-delay: 400ms"><svg xmlns="http://www.w3.org/2000/svg" viewBox="0 0 128 128" class="language-icon experimental-language-icon language-icon-dark-outline" width="14" height="14" aria-hidden="true" x="21" y="163"><path d="M62.96.242c-.232.135-1.203 1.528-2.16 3.097-2.4 3.94-2.426 3.942-5.65.55-2.098-2.208-2.605-2.612-3.28-2.607-.44.002-.995.152-1.235.332-.24.18-.916 1.612-1.504 3.183-1.346 3.6-1.41 3.715-2.156 3.86-.46.086-1.343-.407-3.463-1.929-1.565-1.125-3.1-2.045-3.411-2.045-1.291 0-1.655.706-2.27 4.4-.78 4.697-.754 4.681-4.988 2.758-1.71-.776-3.33-1.41-3.603-1.41-.274 0-.792.293-1.15.652-.652.652-.653.655-.475 4.246l.178 3.595-.68.364c-.602.322-1.017.283-3.684-.348-3.48-.822-4.216-.8-4.92.15l-.516.693.692 2.964c.38 1.63.745 3.2.814 3.487.067.287-.05.746-.26 1.02-.348.448-.717.49-3.94.44-5.452-.086-5.761.382-3.51 5.3.718 1.56 1.305 2.98 1.305 3.15 0 .898-.717 1.224-3.794 1.727-1.722.28-3.218.51-3.326.51-.107 0-.43.235-.717.522-.937.936-.671 1.816 1.453 4.814 2.646 3.735 2.642 3.75-1.73 5.421-4.971 1.902-5.072 2.37-1.287 5.96 3.525 3.344 3.53 3.295-.461 5.804C.208 62.8.162 62.846.085 63.876c-.093 1.253-.071 1.275 3.538 3.48 3.57 2.18 3.57 2.246.067 5.56C-.078 76.48.038 77 5.013 78.877c4.347 1.64 4.353 1.66 1.702 5.394-1.502 2.117-1.981 3-1.981 3.653 0 1.223.637 1.535 4.44 2.174 3.206.54 3.92.857 3.92 1.741 0 .182-.588 1.612-1.307 3.177-2.236 4.87-1.981 5.275 3.31 5.275 4.93 0 4.799-.15 3.737 4.294-.8 3.35-.813 3.992-.088 4.715.554.556 1.6.494 4.87-.289 2.499-.596 2.937-.637 3.516-.328l.66.354-.177 3.594c-.178 3.593-.177 3.595.475 4.248.358.36.884.652 1.165.652.282 0 1.903-.63 3.604-1.404 4.22-1.916 4.194-1.932 4.973 2.75.617 3.711.977 4.4 2.294 4.4.327 0 1.83-.88 3.34-1.958 2.654-1.893 3.342-2.19 4.049-1.74.182.115.89 1.67 1.572 3.455 1.003 2.625 1.37 3.31 1.929 3.576 1.062.51 1.72.1 4.218-2.62 3.016-3.286 3.14-3.27 5.602.72 2.72 4.406 3.424 4.396 6.212-.089 2.402-3.864 2.374-3.862 5.621-.47 2.157 2.25 2.616 2.61 3.343 2.61.464 0 1.019-.175 1.23-.388.214-.213.92-1.786 1.568-3.496.649-1.71 1.321-3.2 1.495-3.31.687-.436 1.398-.13 4.048 1.752 1.56 1.108 3.028 1.96 3.377 1.96 1.296 0 1.764-.92 2.302-4.535.46-3.082.554-3.378 1.16-3.685.596-.302.954-.2 3.75 1.07 1.701.77 3.323 1.402 3.604 1.402.282 0 .816-.302 1.184-.672l.672-.67-.184-3.448c-.177-3.29-.16-3.468.364-3.943.54-.488.596-.486 3.615.204 3.656.835 4.338.857 5.025.17.671-.67.664-.818-.254-4.69-1.03-4.346-1.168-4.19 3.78-4.19 3.374 0 3.75-.049 4.18-.523.718-.793.547-1.702-.896-4.779-.729-1.55-1.32-2.96-1.315-3.135.024-.914.743-1.227 4.065-1.767 2.033-.329 3.553-.71 3.829-.96.923-.833.584-1.918-1.523-4.873-2.642-3.703-2.63-3.738 1.599-5.297 5.064-1.866 5.209-2.488 1.419-6.09-3.51-3.335-3.512-3.317.333-5.677 4.648-2.853 4.655-3.496.082-6.335-3.933-2.44-3.93-2.406-.405-5.753 3.78-3.593 3.678-4.063-1.295-5.965-4.388-1.679-4.402-1.72-1.735-5.38 1.588-2.18 1.982-2.903 1.982-3.65 0-1.306-.586-1.598-4.436-2.22-3.216-.52-3.924-.835-3.924-1.75 0-.174.588-1.574 1.307-3.113 1.406-3.013 1.604-4.22.808-4.94-.428-.387-1-.443-4.067-.392-3.208.054-3.618.008-4.063-.439-.486-.488-.48-.557.278-3.725.931-3.88.935-3.975.17-4.694-.777-.73-1.262-.718-4.826.121-2.597.612-3.027.653-3.617.337l-.67-.36.185-3.582.186-3.58-.67-.67c-.369-.37-.891-.67-1.163-.67-.27 0-1.884.64-3.583 1.421-2.838 1.306-3.143 1.393-3.757 1.072-.612-.32-.714-.637-1.237-3.829-.603-3.693-.977-4.412-2.288-4.412-.311 0-1.853.925-3.426 2.055-2.584 1.856-2.93 2.032-3.574 1.807-.533-.186-.843-.59-1.221-1.599-.28-.742-.817-2.172-1.194-3.177-.762-2.028-1.187-2.482-2.328-2.482-.637 0-1.213.458-3.28 2.604-3.25 3.375-3.261 3.374-5.65-.545C66.073 1.78 65.075.382 64.81.24c-.597-.32-1.3-.32-1.85.002m2.96 11.798c2.83 2.014 1.326 6.75-2.144 6.75-3.368 0-5.064-4.057-2.66-6.36 1.358-1.3 3.304-1.459 4.805-.39m-3.558 12.507c1.855.705 2.616.282 6.852-3.8l3.182-3.07 1.347.18c4.225.56 12.627 4.25 17.455 7.666 4.436 3.14 10.332 9.534 12.845 13.93l.537.942-2.38 5.364c-1.31 2.95-2.382 5.673-2.382 6.053 0 .878.576 2.267 1.13 2.726.234.195 2.457 1.265 4.939 2.378l4.51 2.025.178 1.148c.23 1.495.26 5.167.052 6.21l-.163.816h-2.575c-2.987 0-2.756-.267-2.918 3.396-.118 2.656-.76 4.124-2.22 5.075-2.377 1.551-6.304 1.27-7.97-.57-.255-.284-.752-1.705-1.105-3.16-1.03-4.254-2.413-6.64-5.193-8.965-.878-.733-1.595-1.418-1.595-1.522 0-.102.965-.915 2.145-1.803 4.298-3.24 6.77-7.012 7.04-10.747.519-7.126-5.158-13.767-13.602-15.92-2.002-.51-2.857-.526-27.624-.526-14.057 0-25.56-.092-25.56-.204 0-.263 3.125-3.295 4.965-4.816 5.054-4.178 11.618-7.465 18.417-9.22l2.35-.61 3.34 3.387c1.839 1.863 3.64 3.5 4.003 3.637M20.3 46.34c1.539 1.008 2.17 3.54 1.26 5.062-1.405 2.356-4.966 2.455-6.373.178-2.046-3.309 1.895-7.349 5.113-5.24m90.672.13c4.026 2.454.906 8.493-3.404 6.586-2.877-1.273-2.97-5.206-.155-6.64 1.174-.6 2.523-.579 3.56.053M32.163 61.5v15.02h-13.28l-.526-2.285c-1.036-4.5-1.472-9.156-1.211-12.969l.182-2.679 4.565-2.047c2.864-1.283 4.706-2.262 4.943-2.625 1.038-1.584.94-2.715-.518-5.933l-.68-1.502h6.523V61.5M70.39 47.132c2.843.74 4.345 2.245 4.349 4.355.002 1.55-.765 2.52-2.67 3.38-1.348.61-1.562.625-10.063.708l-8.686.084v-8.92h7.782c6.078 0 8.112.086 9.288.393m-2.934 21.554c1.41.392 3.076 1.616 3.93 2.888.898 1.337 1.423 3.076 2.667 8.836 1.05 4.87 1.727 6.46 3.62 8.532 2.345 2.566 1.8 2.466 13.514 2.466 5.61 0 10.198.09 10.198.2 0 .197-3.863 4.764-4.03 4.764-.048 0-2.066-.422-4.484-.939-6.829-1.458-7.075-1.287-8.642 6.032l-1.008 4.702-.91.448c-1.518.75-6.453 2.292-9.01 2.82-4.228.87-8.828 1.162-12.871.821-6.893-.585-16.02-3.259-16.377-4.8-.075-.327-.535-2.443-1.018-4.704-.485-2.26-1.074-4.404-1.31-4.764-1.13-1.724-2.318-1.83-7.547-.674-1.98.44-3.708.796-3.84.796-.248 0-3.923-4.249-3.923-4.535 0-.09 8.728-.194 19.396-.23l19.395-.066.07-6.89c.05-4.865-.018-6.997-.23-7.25-.234-.284-1.485-.358-6.011-.358H53.32v-8.36l6.597.001c3.626.002 7.02.12 7.539.264M37.57 100.02c3.084 1.88 1.605 6.804-2.043 6.8-3.74 0-5.127-4.88-1.94-6.826 1.055-.643 2.908-.63 3.983.026m56.48.206c1.512 1.108 2.015 3.413 1.079 4.95-2.46 4.034-8.612.827-6.557-3.419 1.01-2.085 3.695-2.837 5.478-1.53" /></svg><text class="label" x="41" y="174">Rust</text><text class="value" x="170" y="174" text-anchor="end">4.9%</text><rect class="metric-bar" x="182" y="164" width="18" height="10" rx="2" style="fill:#dea584" /></g>
</svg>
