<svg id="gh-dark-mode-only" width="360" height="210" xmlns="http://www.w3.org/2000/svg">
<style>
svg { font-family: -apple-system, BlinkMacSystemFont, Segoe UI, Helvetica, Arial, sans-serif; font-size: 12px; }
#background { width: calc(100% - 10px); height: calc(100% - 10px); fill: white; stroke: rgb(225, 228, 232); stroke-width: 1px; rx: 6px; ry: 6px; }
#gh-dark-mode-only:target #background { fill: #0d1117; stroke-width: 0.5px; }
.title { font-size: 16px; font-weight: 600; fill: rgb(36, 41, 46); }
#gh-dark-mode-only:target .title { fill: #c9d1d9; }
.subtitle, .label { fill: rgb(88, 96, 105); }
#gh-dark-mode-only:target .subtitle, #gh-dark-mode-only:target .label { fill: #8b949e; }
.value { fill: rgb(36, 41, 46); font-weight: 600; }
#gh-dark-mode-only:target .value { fill: #c9d1d9; }
.metric-bar { fill: #2da44e; }
#gh-dark-mode-only:target .language-icon-dark-outline path, #gh-dark-mode-only:target .language-icon-dark-outline circle, #gh-dark-mode-only:target .language-icon-dark-outline ellipse, #gh-dark-mode-only:target .language-icon-dark-outline rect, #gh-dark-mode-only:target .language-icon-dark-outline polygon, #gh-dark-mode-only:target .language-icon-dark-outline polyline, #gh-dark-mode-only:target .language-icon-dark-outline line { stroke: rgba(240, 246, 252, 0.82); stroke-width: 16; stroke-linejoin: round; paint-order: stroke fill markers; }
.empty-bar { fill: rgb(225, 228, 232); }
#gh-dark-mode-only:target .empty-bar { fill: #30363d; }
.row { opacity: 0; transform: translateY(10px); animation: riseIn 600ms ease-out forwards; }
@keyframes riseIn { to { opacity: 1; transform: translateY(0); } }
</style>
<rect x="5" y="5" id="background" />
<text class="title" x="21" y="36">GitHub Trading Card</text>
<text class="subtitle" x="21" y="55">Transparent experimental scorecard</text>
<g class="row" style="animation-delay: 0ms"><text class="label" x="21" y="76">Primary language</text><svg xmlns="http://www.w3.org/2000/svg" viewBox="0 0 128 128" class="language-icon experimental-language-icon" width="14" height="14" aria-hidden="true" x="248" y="65"><path fill="#fff" d="M22.67 47h99.67v73.67H22.67z" /><path data-name="original" fill="#007acc" d="M1.5 63.91v62.5h125v-125H1.5zm100.73-5a15.56 15.56 0 017.82 4.5 20.58 20.58 0 013 4c0 .16-5.4 3.81-8.69 5.85-.12.08-.6-.44-1.13-1.23a7.09 7.09 0 00-5.87-3.53c-3.79-.26-6.23 1.73-6.21 5a4.58 4.58 0 00.54 2.34c.83 1.73 2.38 2.76 7.24 4.86 8.95 3.85 12.78 6.39 15.16 10 2.66 4 3.25 10.46 1.45 15.24-2 5.2-6.9 8.73-13.83 9.9a38.32 38.32 0 01-9.52-.1 23 23 0 01-12.72-6.63c-1.15-1.27-3.39-4.58-3.25-4.82a9.34 9.34 0 011.15-.73L82 101l3.59-2.08.75 1.11a16.78 16.78 0 004.74 4.54c4 2.1 9.46 1.81 12.16-.62a5.43 5.43 0 00.69-6.92c-1-1.39-3-2.56-8.59-5-6.45-2.78-9.23-4.5-11.77-7.24a16.48 16.48 0 01-3.43-6.25 25 25 0 01-.22-8c1.33-6.23 6-10.58 12.82-11.87a31.66 31.66 0 019.49.26zm-29.34 5.24v5.12H56.66v46.23H45.15V69.26H28.88v-5a49.19 49.19 0 01.12-5.17C29.08 59 39 59 51 59h21.83z" /></svg><text class="value" x="330" y="76" text-anchor="end">TypeScript</text></g>
<g class="row" style="animation-delay: 80ms"><text class="label" x="21" y="94">Activity score</text><text class="value" x="330" y="94" text-anchor="end">100/100</text></g>
<g class="row" style="animation-delay: 160ms"><text class="label" x="21" y="112">Impact score</text><text class="value" x="330" y="112" text-anchor="end">44/100</text></g>
<g class="row" style="animation-delay: 240ms"><text class="label" x="21" y="130">Collaboration score</text><text class="value" x="330" y="130" text-anchor="end">52/100</text></g>
<g class="row" style="animation-delay: 320ms"><text class="label" x="21" y="148">Breadth score</text><text class="value" x="330" y="148" text-anchor="end">100/100</text></g>
</svg>
