<svg id="gh-dark-mode-only" width="360" height="210" xmlns="http://www.w3.org/2000/svg">
<style>
svg {
  font-family: -apple-system, BlinkMacSystemFont, Segoe UI, Helvetica, Arial, sans-serif, Apple Color Emoji, Segoe UI Emoji;
  font-size: 14px;
}

#background {
  width: calc(100% - 10px);
  height: calc(100% - 10px);
  fill: white;
  stroke: rgb(225, 228, 232);
  stroke-width: 1px;
  rx: 6px;
  ry: 6px;
}

#gh-dark-mode-only:target #background {
  fill: #0d1117;
  stroke-width: 0.5px;
}

.title {
  font-size: 16px;
  font-weight: 600;
  fill: rgb(36, 41, 46);
}

#gh-dark-mode-only:target .title {
  fill: #c9d1d9;
}

.subtitle,
.month,
.count {
  fill: rgb(88, 96, 105);
}

#gh-dark-mode-only:target .subtitle,
#gh-dark-mode-only:target .month,
#gh-dark-mode-only:target .count {
  fill: #8b949e;
}

.subtitle {
  font-size: 11px;
}

.month {
  font-size: 8px;
}

.count {
  font-size: 9px;
}

.axis {
  stroke: rgb(225, 228, 232);
  stroke-width: 1px;
}

#gh-dark-mode-only:target .axis {
  stroke: #30363d;
}

.bar {
  fill: #2da44e;
}

#gh-dark-mode-only:target .bar {
  fill: #3fb950;
}

.bar.current {
  fill: #0969da;
}

#gh-dark-mode-only:target .bar.current {
  fill: #58a6ff;
}

g {
  opacity: 0;
  transform: translateY(16px);
  animation: riseIn 700ms ease-out forwards;
}

@keyframes riseIn {
  to {
    opacity: 1;
    transform: translateY(0);
  }
}
</style>
<rect x="5" y="5" id="background" />
<text class="title" x="21" y="36">Monthly Commits</text>
<text class="subtitle" x="21" y="55">9,416 commits over 13 months; Jul &#x27;26 has 2</text>
<line class="axis" x1="21" y1="154" x2="339" y2="154" />
<g style="animation-delay: 0ms"><title>Jul &#x27;25: 96 commits</title><rect class="bar" x="27" y="150" width="14" height="3" rx="2" /><text class="count" x="34.0" y="145" text-anchor="middle">96</text><text class="month" x="34.0" y="174" text-anchor="end" transform="rotate(-35 34.0 174)">Jul &#x27;25</text></g>
<g style="animation-delay: 75ms"><title>Aug &#x27;25: 20 commits</title><rect class="bar" x="51" y="150" width="14" height="3" rx="2" /><text class="count" x="58.0" y="145" text-anchor="middle">20</text><text class="month" x="58.0" y="174" text-anchor="end" transform="rotate(-35 58.0 174)">Aug &#x27;25</text></g>
<g style="animation-delay: 150ms"><title>Sep &#x27;25: 49 commits</title><rect class="bar" x="75" y="150" width="14" height="3" rx="2" /><text class="count" x="82.0" y="145" text-anchor="middle">49</text><text class="month" x="82.0" y="174" text-anchor="end" transform="rotate(-35 82.0 174)">Sep &#x27;25</text></g>
<g style="animation-delay: 225ms"><title>Oct &#x27;25: 34 commits</title><rect class="bar" x="99" y="150" width="14" height="3" rx="2" /><text class="count" x="106.0" y="145" text-anchor="middle">34</text><text class="month" x="106.0" y="174" text-anchor="end" transform="rotate(-35 106.0 174)">Oct &#x27;25</text></g>
<g style="animation-delay: 300ms"><title>Nov &#x27;25: 13 commits</title><rect class="bar" x="123" y="150" width="14" height="3" rx="2" /><text class="count" x="130.0" y="145" text-anchor="middle">13</text><text class="month" x="130.0" y="174" text-anchor="end" transform="rotate(-35 130.0 174)">Nov &#x27;25</text></g>
<g style="animation-delay: 375ms"><title>Dec &#x27;25: 106 commits</title><rect class="bar" x="147" y="150" width="14" height="3" rx="2" /><text class="count" x="154.0" y="145" text-anchor="middle">106</text><text class="month" x="154.0" y="174" text-anchor="end" transform="rotate(-35 154.0 174)">Dec &#x27;25</text></g>
<g style="animation-delay: 450ms"><title>Jan &#x27;26: 2,363 commits</title><rect class="bar" x="171" y="78" width="14" height="75" rx="2" /><text class="count" x="178.0" y="73" text-anchor="middle">2,363</text><text class="month" x="178.0" y="174" text-anchor="end" transform="rotate(-35 178.0 174)">Jan &#x27;26</text></g>
<g style="animation-delay: 525ms"><title>Feb &#x27;26: 1,079 commits</title><rect class="bar" x="195" y="119" width="14" height="34" rx="2" /><text class="count" x="202.0" y="114" text-anchor="middle">1,079</text><text class="month" x="202.0" y="174" text-anchor="end" transform="rotate(-35 202.0 174)">Feb &#x27;26</text></g>
<g style="animation-delay: 600ms"><title>Mar &#x27;26: 920 commits</title><rect class="bar" x="219" y="124" width="14" height="29" rx="2" /><text class="count" x="226.0" y="119" text-anchor="middle">920</text><text class="month" x="226.0" y="174" text-anchor="end" transform="rotate(-35 226.0 174)">Mar &#x27;26</text></g>
<g style="animation-delay: 675ms"><title>Apr &#x27;26: 1,355 commits</title><rect class="bar" x="243" y="110" width="14" height="43" rx="2" /><text class="count" x="250.0" y="105" text-anchor="middle">1,355</text><text class="month" x="250.0" y="174" text-anchor="end" transform="rotate(-35 250.0 174)">Apr &#x27;26</text></g>
<g style="animation-delay: 750ms"><title>May &#x27;26: 791 commits</title><rect class="bar" x="267" y="128" width="14" height="25" rx="2" /><text class="count" x="274.0" y="123" text-anchor="middle">791</text><text class="month" x="274.0" y="174" text-anchor="end" transform="rotate(-35 274.0 174)">May &#x27;26</text></g>
<g style="animation-delay: 825ms"><title>Jun &#x27;26: 2,588 commits</title><rect class="bar" x="291" y="71" width="14" height="82" rx="2" /><text class="count" x="298.0" y="66" text-anchor="middle">2,588</text><text class="month" x="298.0" y="174" text-anchor="end" transform="rotate(-35 298.0 174)">Jun &#x27;26</text></g>
<g style="animation-delay: 900ms"><title>Jul &#x27;26: 2 commits</title><rect class="bar current" x="315" y="150" width="14" height="3" rx="2" /><text class="count" x="322.0" y="145" text-anchor="middle">2</text><text class="month" x="322.0" y="174" text-anchor="end" transform="rotate(-35 322.0 174)">Jul &#x27;26</text></g>
</svg>
